<svg width="24" height="24" viewBox="0 0 24 24" fill="none" xmlns="http://www.w3.org/2000/svg">
<g clip-path="url(#clip0_2385_8)">
<path d="M24 5V4H6.803L4.803 2H4V0H3V2H2V4H0V5H2V7H3V23H1V24H8V23H6V7H7V5H16.354L12.263 10H10V13H24V10H21.737L17.646 5H24ZM5 23H4V7H5V23ZM6 6H3V3H4.389L6 4.611V6ZM23 12H11V11H23V12ZM13.555 10L17 5.79L20.445 10H13.555ZM13 21H16V18H13V21ZM14 19H15V20H14V19ZM18 21H21V18H18V21ZM19 19H20V20H19V19ZM10 24H24V15H10V24ZM11 16H23V23H11V16Z" fill="#F7F7F7"/>
</g>
<defs>
<clipPath id="clip0_2385_8">
<rect width="24" height="24" fill="white"/>
</clipPath>
</defs>
</svg>
