<svg width="24" height="24" viewBox="0 0 24 24" fill="none" xmlns="http://www.w3.org/2000/svg">
<path d="M23.798 8.099C23.671 8.004 23.508 7.976 23.356 8.022L16.996 9.943C16.489 10.085 15.947 9.956 15.562 9.6C14.95 8.612 13.857 8 12.692 8H10.001V4H12.501C12.777 4 13.001 3.776 13.001 3.5C13.001 3.224 12.777 3 12.501 3H6.5C6.224 3 6 3.224 6 3.5C6 3.776 6.224 4 6.5 4H9V8H5.371L3.371 7.158C2.603 6.873 1.743 6.983 1.073 7.449C0.401 7.916 0 8.683 0 9.502V11.967C0 13.448 0.939 14.776 2.337 15.268L4 15.854V16.5C4 18.43 5.57 20 7.5 20H13.15C14.472 20 15.722 19.422 16.579 18.415L23.881 9.824C23.958 9.733 24 9.618 24 9.5V8.5C24 8.342 23.925 8.193 23.798 8.099ZM2.669 14.324C1.671 13.972 1 13.025 1 11.967V9.502C1 9.004 1.234 8.555 1.644 8.271C2.054 7.985 2.558 7.921 3.003 8.088L4 8.508V14.794L2.669 14.324ZM23 9.316L15.817 17.766C15.151 18.55 14.178 18.999 13.15 18.999H7.5C6.121 18.999 5 17.878 5 16.499V8.999H12.691C13.527 8.999 14.311 9.446 14.737 10.167C14.758 10.203 14.785 10.237 14.814 10.267C15.456 10.909 16.392 11.152 17.276 10.901L23 9.172V9.316ZM21.323 15.321C21.188 15.473 20 16.843 20 18.003C20 18.535 20.208 19.036 20.586 19.414C20.964 19.792 21.466 20 22 20C22.534 20 23.036 19.792 23.414 19.414C23.792 19.036 24 18.534 24 18C24 16.844 22.812 15.474 22.705 15.356C22.377 14.911 21.595 14.946 21.323 15.321ZM22.707 18.707C22.328 19.084 21.672 19.084 21.293 18.707C21.105 18.518 21 18.268 21 18.003C21 17.457 21.564 16.591 22 16.067C22.414 16.557 23 17.445 23 18C23 18.267 22.896 18.518 22.707 18.707Z" fill="#F7F7F7"/>
</svg>
