<svg width="24" height="24" viewBox="0 0 24 24" fill="none" xmlns="http://www.w3.org/2000/svg">
<g clip-path="url(#clip0_2386_10)">
<path d="M21.234 14.174L20.789 13.9C20.929 13.26 21 12.623 21 12.001C21 11.379 20.929 10.741 20.789 10.102L21.234 9.82798C21.916 9.40698 22.394 8.74598 22.578 7.96598C22.763 7.18698 22.632 6.38098 22.211 5.69898C21.342 4.29198 19.491 3.85398 18.083 4.72098L17.638 4.99598C16.837 4.34898 15.953 3.85098 15 3.51498V3.00098C15 1.34698 13.654 0.000976562 12 0.000976562C10.346 0.000976562 8.99998 1.34698 8.99998 3.00098V3.51498C8.04698 3.85198 7.16298 4.34898 6.36198 4.99598L5.91698 4.72098C4.50798 3.85398 2.65698 4.29098 1.78898 5.69898C1.36798 6.38098 1.23798 7.18598 1.42198 7.96598C1.60698 8.74598 2.08398 9.40698 2.76598 9.82798L3.21098 10.102C3.07098 10.742 2.99998 11.379 2.99998 12.001C2.99998 12.623 3.07098 13.261 3.21098 13.9L2.76598 14.174C2.08398 14.595 1.60598 15.256 1.42198 16.036C1.23698 16.815 1.36798 17.621 1.78898 18.303C2.65698 19.71 4.50998 20.148 5.91698 19.281L6.36198 19.006C7.16298 19.653 8.04698 20.151 8.99998 20.487V21.001C8.99998 22.655 10.346 24.001 12 24.001C13.654 24.001 15 22.655 15 21.001V20.487C15.953 20.15 16.837 19.653 17.638 19.006L18.083 19.281C19.493 20.148 21.343 19.711 22.211 18.303C22.632 17.621 22.762 16.816 22.578 16.036C22.393 15.256 21.916 14.595 21.234 14.174ZM21.36 17.778C20.78 18.716 19.545 19.01 18.608 18.429L17.855 17.964C17.668 17.85 17.428 17.869 17.263 18.014C16.401 18.77 15.422 19.319 14.353 19.648C14.143 19.712 14 19.906 14 20.126V21.001C14 22.104 13.103 23.001 12 23.001C10.897 23.001 9.99998 22.104 9.99998 21.001V20.126C9.99998 19.906 9.85698 19.713 9.64698 19.648C8.57798 19.319 7.59898 18.77 6.73698 18.014C6.64298 17.932 6.52598 17.89 6.40698 17.89C6.31598 17.89 6.22498 17.914 6.14398 17.964L5.39098 18.429C4.45298 19.01 3.21798 18.716 2.63898 17.778C2.35898 17.324 2.27198 16.787 2.39498 16.267C2.51798 15.746 2.83598 15.306 3.29098 15.026L4.04398 14.561C4.23098 14.446 4.31998 14.222 4.26498 14.009C4.08898 13.33 3.99998 12.655 3.99998 12C3.99998 11.345 4.08898 10.67 4.26498 9.99098C4.31998 9.77798 4.22998 9.55398 4.04398 9.43898L3.29098 8.97398C2.83598 8.69398 2.51898 8.25298 2.39498 7.73298C2.27198 7.21298 2.35898 6.67598 2.63898 6.22198C3.21898 5.28298 4.45298 4.98998 5.39098 5.57098L6.14398 6.03598C6.33098 6.14998 6.56998 6.13098 6.73598 5.98598C7.59798 5.22998 8.57698 4.68098 9.64598 4.35198C9.85598 4.28798 9.99898 4.09398 9.99898 3.87398V2.99898C9.99898 1.89598 10.896 0.998977 11.999 0.998977C13.102 0.998977 13.999 1.89598 13.999 2.99898V3.87398C13.999 4.09398 14.142 4.28698 14.352 4.35198C15.421 4.68098 16.4 5.22998 17.262 5.98598C17.428 6.13098 17.668 6.14998 17.854 6.03598L18.607 5.57098C19.545 4.98998 20.779 5.28298 21.359 6.22198C21.639 6.67598 21.726 7.21298 21.603 7.73298C21.48 8.25398 21.162 8.69398 20.707 8.97398L19.954 9.43898C19.767 9.55398 19.678 9.77798 19.733 9.99098C19.909 10.67 19.998 11.345 19.998 12C19.998 12.655 19.909 13.33 19.733 14.009C19.678 14.222 19.768 14.446 19.954 14.561L20.707 15.026C21.162 15.306 21.479 15.747 21.603 16.267C21.726 16.787 21.639 17.324 21.359 17.778H21.36ZM12 7.99998C9.79398 7.99998 7.99998 9.79398 7.99998 12C7.99998 14.206 9.79398 16 12 16C14.206 16 16 14.206 16 12C16 9.79398 14.206 7.99998 12 7.99998ZM12 15C10.346 15 8.99998 13.654 8.99998 12C8.99998 10.346 10.346 8.99998 12 8.99998C13.654 8.99998 15 10.346 15 12C15 13.654 13.654 15 12 15Z" fill="#F7F7F7"/>
</g>
<defs>
<clipPath id="clip0_2386_10">
<rect width="24" height="24" fill="white"/>
</clipPath>
</defs>
</svg>
