<svg width="24" height="24" viewBox="0 0 24 24" fill="none" xmlns="http://www.w3.org/2000/svg">
<g clip-path="url(#clip0_2386_14)">
<path d="M24 16.508C24 18.579 22.833 20.466 21 21.402V23.5C21 23.776 20.776 24 20.5 24C20.224 24 20 23.776 20 23.5V21.086C20 20.887 20.118 20.708 20.299 20.628C21.94 19.91 23 18.293 23 16.508C23 15.17 22.408 13.91 21.375 13.053C21.18 12.94 21.038 13.006 21 13.229V15.401C21 16.675 20.104 17.781 18.916 17.974C17.435 18.252 15.966 17.012 16 15.508V13.229C15.962 13.006 15.82 12.94 15.625 13.053C14.593 13.91 14 15.17 14 16.508C14 18.293 15.06 19.91 16.701 20.628C16.883 20.708 17 20.887 17 21.086V23.5C17 23.776 16.776 24 16.5 24C16.224 24 16 23.776 16 23.5V21.402C14.167 20.465 13 18.579 13 16.508C13 14.872 13.724 13.332 14.986 12.283C15.737 11.611 17.037 12.221 17 13.229V15.508C16.982 16.413 17.86 17.158 18.755 16.987C19.465 16.872 20 16.19 20 15.401V13.229C19.963 12.221 21.263 11.612 22.014 12.283C23.276 13.332 24 14.871 24 16.508ZM14.013 7.99901C14.013 11.309 11.322 14 8.01301 14C4.70401 14 2.01301 11.309 2.01301 8.00001L2.01101 7.00001H1.00001C0.724011 7.00001 0.500011 6.77601 0.500011 6.50001C0.500011 6.22401 0.724011 6.00001 1.00001 6.00001H2.01001V5.50901C1.94301 2.55001 4.54901 -0.0609897 7.50901 1.03272e-05H8.50901C11.537 1.03272e-05 14.004 2.46301 14.009 5.49101V6.00001H15.001C15.277 6.00001 15.501 6.22401 15.501 6.50001C15.501 6.77601 15.277 7.00001 15.001 7.00001H14.012L14.014 7.99901H14.013ZM3.01001 6.00001H13.009V5.49301C13.005 3.54101 11.743 1.89301 10 1.27401V3.50001C10 3.77601 9.77601 4.00001 9.50001 4.00001C9.22401 4.00001 9.00001 3.77601 9.00001 3.50001V1.05001C8.83601 1.03201 8.67701 1.00001 8.50801 1.00001H7.50801C7.33501 1.00001 7.16801 1.03101 6.99901 1.05001V3.50001C6.99901 3.77601 6.77501 4.00001 6.49901 4.00001C6.22301 4.00001 5.99901 3.77601 5.99901 3.50001V1.27501C5.37801 1.49601 4.80301 1.84001 4.32301 2.32001C3.47301 3.17201 3.00601 4.30301 3.00801 5.50701V6.00001H3.01001ZM13.014 8.00001L13.012 7.00001H3.01101L3.01301 7.99901C3.01301 10.757 5.25601 13 8.01301 13C10.77 13 13.013 10.757 13.013 8.00001H13.014ZM10.667 15.451C9.81601 15.152 8.92301 15 8.01401 15C3.60201 15 0.0130114 18.589 0.0130114 22.987L1.13796e-05 23.487C-0.00698862 23.763 0.211011 23.992 0.487011 24H0.500011C0.770011 24 0.993011 23.784 1.00001 23.513L1.01301 23C1.01301 19.14 4.15301 16 8.01301 16C8.80901 16 9.59001 16.133 10.335 16.394C10.592 16.484 10.88 16.349 10.972 16.088C11.064 15.828 10.928 15.542 10.667 15.451Z" fill="#F7F7F7"/>
</g>
<defs>
<clipPath id="clip0_2386_14">
<rect width="24" height="24" fill="white"/>
</clipPath>
</defs>
</svg>
