<svg width="21" height="21" viewBox="0 0 21 21" fill="none" xmlns="http://www.w3.org/2000/svg">
<path d="M20.8434 9.78338C19.998 7.95 18.7598 6.32496 17.2165 5.02338L19.8695 2.37038L18.6314 1.13138L15.75 4.01013C14.1552 3.08763 12.3423 2.60934 10.5 2.625C3.93751 2.625 0.924884 8.10338 0.156634 9.78338C0.0535054 10.0085 0.00012207 10.2532 0.00012207 10.5009C0.00012207 10.7485 0.0535054 10.9932 0.156634 11.2184C1.002 13.0518 2.2402 14.6768 3.78351 15.9784L1.13138 18.6314L2.36863 19.8686L5.25001 16.9899C6.84482 17.9124 8.65768 18.3907 10.5 18.375C17.0625 18.375 20.0751 12.8966 20.8434 11.2166C20.9463 10.9917 20.9996 10.7473 20.9996 10.5C20.9996 10.2527 20.9463 10.0083 20.8434 9.78338ZM1.75001 10.5096C2.40626 9.07025 4.98138 4.375 10.5 4.375C11.8734 4.36697 13.2288 4.68738 14.4533 5.3095L12.9089 6.85388C12.0688 6.29615 11.0617 6.04625 10.0583 6.14657C9.055 6.24689 8.11727 6.69125 7.40426 7.40425C6.69126 8.11726 6.24689 9.05499 6.14657 10.0583C6.04626 11.0617 6.29616 12.0688 6.85389 12.9089L5.03476 14.728C3.63509 13.5882 2.51202 12.1459 1.75001 10.5096ZM13.125 10.5C13.125 11.1962 12.8484 11.8639 12.3562 12.3562C11.8639 12.8484 11.1962 13.125 10.5 13.125C10.1102 13.1235 9.72581 13.0338 9.37564 12.8625L12.8625 9.37563C13.0338 9.7258 13.1235 10.1102 13.125 10.5ZM7.87501 10.5C7.87501 9.80381 8.15157 9.13613 8.64385 8.64385C9.13614 8.15156 9.80382 7.875 10.5 7.875C10.8898 7.87651 11.2742 7.96626 11.6244 8.1375L8.13751 11.6244C7.96626 11.2742 7.87652 10.8898 7.87501 10.5ZM10.5 16.625C9.12661 16.633 7.7712 16.3126 6.54676 15.6905L8.09114 14.1461C8.93119 14.7039 9.93834 14.9538 10.9417 14.8534C11.945 14.7531 12.8828 14.3088 13.5958 13.5958C14.3088 12.8827 14.7531 11.945 14.8534 10.9417C14.9538 9.93833 14.7039 8.93119 14.1461 8.09113L15.9644 6.27288C17.3668 7.41371 18.4905 8.85943 19.25 10.5C18.5815 11.9499 16.0055 16.625 10.5 16.625Z" fill="#D4D4D4"/>
</svg>
