<svg width="102" height="145" viewBox="0 0 102 145" fill="none" xmlns="http://www.w3.org/2000/svg">
<path d="M68 62.7242L66.9908 63.4618L68 62.7242ZM1.78452 2.49296C1.1045 2.61196 0.649705 3.2597 0.768709 3.93972L2.70799 15.0213C2.82699 15.7013 3.47473 16.1561 4.15475 16.0371C4.83477 15.9181 5.28957 15.2704 5.17056 14.5904L3.44676 4.74006L13.2971 3.01625C13.9771 2.89725 14.4319 2.24951 14.3129 1.56949C14.1939 0.88947 13.5461 0.434673 12.8661 0.553673L1.78452 2.49296ZM100 144.724C101.218 144.442 101.218 144.441 101.217 144.441C101.217 144.44 101.217 144.439 101.217 144.438C101.216 144.437 101.216 144.434 101.215 144.43C101.213 144.423 101.211 144.413 101.208 144.399C101.201 144.371 101.192 144.33 101.179 144.276C101.153 144.168 101.115 144.007 101.065 143.798C100.964 143.378 100.815 142.761 100.618 141.966C100.223 140.377 99.6393 138.081 98.8793 135.244C97.3595 129.573 95.1345 121.738 92.3134 113.087C86.6857 95.8285 78.6363 75.1606 69.0092 61.9867L68 62.7242L66.9908 63.4618C76.3637 76.2879 84.3143 96.62 89.9366 113.862C92.7405 122.461 94.953 130.251 96.4645 135.892C97.2201 138.711 97.8002 140.993 98.1911 142.568C98.3865 143.356 98.5347 143.967 98.6338 144.38C98.6834 144.587 98.7207 144.744 98.7455 144.85C98.7579 144.902 98.7672 144.942 98.7734 144.968C98.7765 144.981 98.7787 144.991 98.7802 144.998C98.781 145.001 98.7816 145.003 98.7819 145.005C98.7821 145.006 98.7822 145.006 98.7823 145.007C98.7824 145.007 98.7824 145.007 100 144.724ZM68 62.7242L69.0092 61.9867C59.4063 48.8458 42.7947 34.0093 28.6642 22.5049C21.5843 16.7407 15.1007 11.7919 10.3869 8.28395C8.02971 6.52978 6.11442 5.1354 4.78757 4.17897C4.12413 3.70074 3.60776 3.33198 3.25679 3.08245C3.0813 2.95767 2.94715 2.8627 2.85664 2.79877C2.81139 2.7668 2.77704 2.74258 2.75388 2.72627C2.7423 2.71811 2.73353 2.71195 2.72758 2.70776C2.72461 2.70567 2.72234 2.70407 2.7208 2.70299C2.72001 2.70244 2.71939 2.702 2.719 2.70173C2.71855 2.70141 2.71828 2.70123 2 3.72424C1.28171 4.74726 1.2818 4.74733 1.28207 4.74751C1.28239 4.74774 1.28284 4.74805 1.28349 4.74851C1.28481 4.74944 1.28683 4.75086 1.28955 4.75277C1.29501 4.75661 1.3033 4.76245 1.31439 4.77026C1.33656 4.78586 1.36991 4.80938 1.41417 4.84065C1.50267 4.90316 1.63476 4.99667 1.80814 5.11995C2.15492 5.3665 2.66688 5.73212 3.3257 6.20701C4.64339 7.15684 6.5484 8.54371 8.89435 10.2895C13.5868 13.7816 20.0407 18.7077 27.0858 24.4436C41.2053 35.9391 57.5937 50.6027 66.9908 63.4618L68 62.7242Z" fill="#222222"/>
</svg>
