<svg width="60" height="144" viewBox="0 0 60 144" fill="none" xmlns="http://www.w3.org/2000/svg">
<path d="M19.9497 74.3494L20.9585 75.0875L19.9497 74.3494ZM50.8337 0.965547C50.3455 0.477401 49.554 0.477395 49.0659 0.965556L41.1109 8.9205C40.6228 9.40866 40.6228 10.2001 41.1109 10.6883C41.5991 11.1764 42.3905 11.1764 42.8787 10.6883L49.9498 3.6172L57.0208 10.6883C57.509 11.1764 58.3005 11.1764 58.7886 10.6883C59.2768 10.2001 59.2768 9.40865 58.7886 8.92051L50.8337 0.965547ZM5.44975 143.349C6.54336 142.744 6.54373 142.745 6.54404 142.745C6.54406 142.745 6.54431 142.746 6.54436 142.746C6.54446 142.746 6.54432 142.746 6.54396 142.745C6.54323 142.744 6.54159 142.741 6.53906 142.736C6.53399 142.727 6.52538 142.71 6.51344 142.688C6.48956 142.642 6.45241 142.57 6.40382 142.472C6.30663 142.275 6.16374 141.973 5.98988 141.571C5.64213 140.765 5.17074 139.556 4.69342 137.973C3.73888 134.806 2.76081 130.142 2.69966 124.211C2.57757 112.37 6.10975 95.3808 20.9585 75.0875L19.9497 74.3494L18.9409 73.6112C3.78967 94.3179 0.0718628 111.829 0.199791 124.237C0.263652 130.431 1.28559 135.33 2.29981 138.695C2.80687 140.377 3.31204 141.676 3.69477 142.562C3.88614 143.005 4.04696 143.345 4.16218 143.578C4.21979 143.695 4.26601 143.785 4.29896 143.848C4.31543 143.879 4.32859 143.904 4.3382 143.922C4.343 143.931 4.34692 143.938 4.34992 143.943C4.35141 143.946 4.35268 143.949 4.35372 143.95C4.35424 143.951 4.35484 143.952 4.3551 143.953C4.35565 143.954 4.35613 143.955 5.44975 143.349ZM19.9497 74.3494L20.9585 75.0875C36.0506 54.4617 43.6128 36.2024 47.4008 23.0709C49.2945 16.5062 50.2442 11.2254 50.7205 7.5736C50.9587 5.74771 51.0785 4.32903 51.1388 3.36067C51.1689 2.87649 51.1842 2.50488 51.1919 2.25122C51.1957 2.12439 51.1977 2.02704 51.1987 1.95985C51.1992 1.92626 51.1995 1.9002 51.1996 1.88177C51.1997 1.87255 51.1997 1.86525 51.1997 1.85986C51.1998 1.85716 51.1998 1.85495 51.1998 1.85321C51.1998 1.85234 51.1998 1.85139 51.1998 1.85096C51.1998 1.85014 51.1998 1.84944 49.9498 1.84944C48.6998 1.84943 48.6998 1.84897 48.6998 1.84863C48.6998 1.84868 48.6998 1.84846 48.6998 1.84855C48.6998 1.84873 48.6998 1.8494 48.6998 1.85053C48.6998 1.8528 48.6997 1.85699 48.6997 1.86308C48.6996 1.87523 48.6994 1.89498 48.699 1.92224C48.6982 1.97677 48.6965 2.06131 48.693 2.17519C48.6861 2.40297 48.672 2.74815 48.6436 3.20538C48.5867 4.11984 48.4721 5.4824 48.2415 7.25025C47.7803 10.7859 46.8551 15.9426 44.9987 22.3779C41.2867 35.2464 33.8489 53.237 18.9409 73.6112L19.9497 74.3494Z" fill="#222222"/>
</svg>
